:FULLY-SPECIFIED
:FORCE-ALL-JOINTS-BE-3DOF
:DEGREES
102
root 7.3784 16.6688 -26.729 4.02309 10.7118 -4.16323
lfemur -27.3856 -4.74099 -10.1882
ltibia 39.5047 -0 0
lfoot -18.2819 -3.00384 -0.0295367
ltoes 16.5899 -0 0
rfemur -31.2415 -9.12171 8.2996
rtibia 72.4537 -0 0
rfoot 10.669 15.7436 0.950814
rtoes -8.38134 0 0
lowerback 0.752085 2.03788 1.06559
upperback -1.26695 2.7763 1.88957
thorax -1.74327 1.38441 1.30343
lowerneck -10.3467 -4.89466 2.39207
upperneck -1.00535 -6.78783 0.939715
head 1.37165 -3.36062 -0.391253
lclavicle 0 0 0
lhumerus -46.7252 -8.18909 93.2025
lradius 48.2432 -0 0
lwrist 15.1797 0 0
lhand 6.73388 7.79192 0.0126987
lfingers 0 -0 0
lthumb 32.0214 34.9847 0.00902391
rclavicle 0 0 0
rhumerus -42.7509 0.278924 -72.8481
rradius 50.7285 -0 0
rwrist -0.409461 0 0
rhand -18.4951 -13.8493 0.047649
rfingers 0 -0 0
rthumb 7.7917 -43.663 0.0488185
103
root 7.41645 16.6844 -26.7086 3.41375 11.1002 -3.87514
lfemur -26.4365 -4.18791 -10.8443
ltibia 38.9784 -0 0
lfoot -18.0433 -4.1869 -0.0295367
ltoes 18.6577 -0 0
rfemur -33.6917 -7.9142 6.56957
rtibia 76.644 -0 0
rfoot 16.3501 17.3591 0.950814
rtoes -1.59226 0 0
lowerback 1.3504 1.80603 0.723454
upperback -1.02424 2.46823 1.93192
thorax -1.84116 1.23445 1.52909
lowerneck -10.4177 -4.87979 2.33529
upperneck -0.875831 -6.76565 0.910367
head 1.42743 -3.34834 -0.395267
lclavicle 0 0 0
lhumerus -46.7112 -8.81835 93.4057
lradius 48.4897 -0 0
lwrist 15.1761 0 0
lhand 7.13285 8.09588 0.0126987
lfingers 0 -0 0
lthumb 32.4011 35.2116 0.00902391
rclavicle 0 0 0
rhumerus -42.7614 0.518962 -71.9322
rradius 50.669 -0 0
rwrist 0.660571 0 0
rhand -19.4049 -14.3496 0.047649
rfingers 0 -0 0
rthumb 6.91359 -44.1941 0.0488185
104
root 7.45451 16.7 -26.6883 2.80558 11.4915 -3.59088
lfemur -25.4945 -3.6241 -11.4907
ltibia 38.452 -0 0
lfoot -17.8049 -5.36994 -0.0246121
ltoes 20.7256 -0 0
rfemur -36.171 -6.78139 4.79369
rtibia 80.8344 -0 0
rfoot 22.0287 18.9667 0.790935
rtoes 5.19683 -0 0
lowerback 1.95002 1.57776 0.378956
upperback -0.781802 2.15998 1.97295
thorax -1.93963 1.08488 1.75499
lowerneck -10.4887 -4.86499 2.27849
upperneck -0.746327 -6.74341 0.881071
head 1.48321 -3.33606 -0.399268
lclavicle 0 0 0
lhumerus -46.6994 -9.44767 93.6091
lradius 48.7361 -0 0
lwrist 15.1725 0 0
lhand 7.53181 8.39984 0.0105821
lfingers 0 -0 0
lthumb 32.7809 35.4385 0.00751985
rclavicle 0 0 0
rhumerus -42.768 0.759136 -71.0162
rradius 50.6095 -0 0
rwrist 1.7306 0 0
rhand -20.3146 -14.8499 0.0397053
rfingers 0 -0 0
rthumb 6.03552 -44.7251 0.0406799
105
root 7.49256 16.7157 -26.668 2.19854 11.8858 -3.31049
lfemur -24.5594 -3.04982 -12.1274
ltibia 37.9256 -0 0
lfoot -17.5666 -6.55296 -0.0147651
ltoes 22.7934 -0 0
rfemur -38.6791 -5.72628 2.97396
rtibia 85.0247 -0 0
rfoot 27.7004 20.5505 0.472876
rtoes 11.9859 -0 0
lowerback 2.55093 1.35312 0.0321213
upperback -0.539632 1.85156 2.01267
thorax -2.03869 0.935693 1.98114
lowerneck -10.5597 -4.85026 2.22168
upperneck -0.616841 -6.72111 0.851826
head 1.53899 -3.32378 -0.403258
lclavicle 0 0 0
lhumerus -46.6899 -10.077 93.8128
lradius 48.9825 -0 0
lwrist 15.1688 0 0
lhand 7.93075 8.70378 0.00634909
lfingers 0 -0 0
lthumb 33.1607 35.6654 0.00451182
rclavicle 0 0 0
rhumerus -42.7708 0.999386 -70.1002
rradius 50.5499 -0 0
rwrist 2.80064 0 0
rhand -21.2242 -15.3499 0.0238206
rfingers 0 -0 0
rthumb 5.15756 -45.2559 0.0244053
106
root 7.53062 16.7313 -26.6477 1.59258 12.283 -3.03397
lfemur -23.6313 -2.46527 -12.7543
ltibia 37.3992 0 0
lfoot -17.3285 -7.73592 0
ltoes 24.8613 0 0
rfemur -41.2156 -4.75181 1.11259
rtibia 89.2151 0 0
rfoot 33.361 22.0951 0
rtoes 18.775 0 0
lowerback 3.15315 1.13213 -0.317021
upperback -0.297715 1.54298 2.05108
thorax -2.13833 0.786902 2.20754
lowerneck -10.6307 -4.8356 2.16485
upperneck -0.487372 -6.69874 0.822634
head 1.59477 -3.31149 -0.407235
lclavicle -1.05232e-14 -1.78906e-15 0
lhumerus -46.6826 -10.7064 94.0168
lradius 49.2289 0 0
lwrist 15.1652 0 0
lhand 8.32967 9.00768 0
lfingers 7.12502 0 0
lthumb 33.5404 35.8923 0
rclavicle -1.05232e-14 -1.78906e-15 0
rhumerus -42.7698 1.23965 -69.1841
rradius 50.4904 0 0
rwrist 3.87067 0 0
rhand -22.1336 -15.8497 0
rfingers 7.12502 0 0
rthumb 4.27979 -45.7864 0
107
root 7.55178 16.7492 -26.6375 0.771081 12.8072 -3.05299
lfemur -22.5739 -2.11795 -12.9711
ltibia 36.9236 -0 0
lfoot -16.8396 -8.40864 -0.0172312
ltoes 26.2094 -0 0
rfemur -43.2505 -3.97975 -0.208636
rtibia 90.6741 -0 0
rfoot 33.4866 20.6773 -0.00934001
rtoes 19.5961 -0 0
lowerback 3.91573 0.812849 -0.282264
upperback 0.0267176 1.1237 2.12361
thorax -2.21146 0.575824 2.29652
lowerneck -10.7219 -4.78473 2.08372
upperneck -0.351941 -6.62435 0.760345
head 1.65719 -3.2746 -0.415404
lclavicle 0 0 0
lhumerus -46.1616 -11.185 93.9594
lradius 48.9549 -0 0
lwrist 14.8143 0 0
lhand 8.22374 8.66592 0.00189586
lfingers 0 -0 0
lthumb 33.4397 35.572 0.00168941
rclavicle 0 0 0
rhumerus -42.8603 1.52336 -68.4926
rradius 50.7693 -0 0
rwrist 5.78373 0 0
rhand -22.2869 -16.5109 0.00530939
rfingers 0 -0 0
rthumb 4.13176 -46.4502 0.00514765
108
root 7.57293 16.7672 -26.6274 -0.0523436 13.3311 -3.07977
lfemur -21.518 -1.7667 -13.1813
ltibia 36.4479 -0 0
lfoot -16.3506 -9.08148 -0.0287207
ltoes 27.5575 -0 0
rfemur -45.301 -3.25513 -1.55539
rtibia 92.1331 -0 0
rfoot 33.6124 19.2594 -0.0155699
rtoes 20.4172 -0 0
lowerback 4.67807 0.493134 -0.251762
upperback 0.350581 0.70402 2.19375
thorax -2.28492 0.36486 2.38578
lowerneck -10.8131 -4.73398 2.00252
upperneck -0.216613 -6.54981 0.698243
head 1.7196 -3.23771 -0.423532
lclavicle 0 0 0
lhumerus -45.6393 -11.663 93.8974
lradius 48.6809 -0 0
lwrist 14.4633 0 0
lhand 8.11779 8.32415 0.00315982
lfingers 0 -0 0
lthumb 33.339 35.2517 0.00281572
rclavicle 0 0 0
rhumerus -42.9473 1.80814 -67.8014
rradius 51.0481 -0 0
rwrist 7.69679 0 0
rhand -22.4402 -17.1721 0.00884939
rfingers 0 -0 0
rthumb 3.98367 -47.1141 0.00857981
109
root 7.59409 16.7851 -26.6172 -0.877842 13.8546 -3.11436
lfemur -20.4636 -1.41163 -13.3851
ltibia 35.9723 -0 0
lfoot -15.8614 -9.75439 -0.0344661
ltoes 28.9056 -0 0
rfemur -47.3667 -2.57926 -2.9264
rtibia 93.5921 -0 0
rfoot 33.7382 17.8415 -0.0186858
rtoes 21.2383 -0 0
lowerback 5.44021 0.173041 -0.225517
upperback 0.673911 0.283949 2.26151
thorax -2.3587 0.154011 2.4753
lowerneck -10.9044 -4.68337 1.92125
upperneck -0.0813853 -6.47513 0.636327
head 1.78201 -3.20081 -0.431619
lclavicle 0 0 0
lhumerus -45.1155 -12.1405 93.8309
lradius 48.4069 -0 0
lwrist 14.1124 0 0
lhand 8.01185 7.98238 0.0037918
lfingers 0 -0 0
lthumb 33.2382 34.9314 0.00337888
rclavicle 0 0 0
rhumerus -43.0309 2.09395 -67.1105
rradius 51.327 -0 0
rwrist 9.60985 0 0
rhand -22.5936 -17.8334 0.0106195
rfingers 0 -0 0
rthumb 3.83556 -47.778 0.010296
110
root 7.61525 16.803 -26.6071 -1.70556 14.3775 -3.15681
lfemur -19.4106 -1.05288 -13.5822
ltibia 35.4966 -0 0
lfoot -15.3722 -10.4273 -0.0344661
ltoes 30.2536 -0 0
rfemur -49.447 -1.95335 -4.32027
rtibia 95.051 -0 0
rfoot 33.8642 16.4237 -0.0186858
rtoes 22.0594 -0 0
lowerback 6.20221 -0.147372 -0.203532
upperback 0.99674 -0.136497 2.32691
thorax -2.43281 -0.0567221 2.56509
lowerneck -10.9957 -4.63288 1.83989
upperneck 0.0537408 -6.4003 0.574598
head 1.84441 -3.1639 -0.439666
lclavicle 0 0 0
lhumerus -44.5902 -12.6174 93.7597
lradius 48.1329 -0 0
lwrist 13.7615 0 0
lhand 7.90589 7.64062 0.0037918
lfingers 0 -0 0
lthumb 33.1375 34.611 0.00337888
rclavicle 0 0 0
rhumerus -43.1111 2.38075 -66.42
rradius 51.6059 -0 0
rwrist 11.5229 0 0
rhand -22.747 -18.4946 0.0106195
rfingers 0 -0 0
rthumb 3.68744 -48.4418 0.010296
111
root 7.63641 16.8209 -26.5969 -2.53566 14.8998 -3.20718
lfemur -18.359 -0.690577 -13.7727
ltibia 35.021 -0 0
lfoot -14.883 -11.1002 -0.0287207
ltoes 31.6017 -0 0
rfemur -51.5413 -1.3786 -5.73553
rtibia 96.51 -0 0
rfoot 33.99 15.0058 -0.0155699
rtoes 22.8805 -0 0
lowerback 6.96411 -0.46805 -0.18581
upperback 1.3191 -0.557305 2.38993
thorax -2.50725 -0.267339 2.65515
lowerneck -11.0872 -4.58252 1.75847
upperneck 0.188766 -6.32533 0.513056
head 1.9068 -3.12698 -0.447673
lclavicle 0 0 0
lhumerus -44.0633 -13.0935 93.684
lradius 47.8589 -0 0
lwrist 13.4106 0 0
lhand 7.79995 7.29885 0.00315982
lfingers 0 -0 0
lthumb 33.0367 34.2907 0.00281572
rclavicle 0 0 0
rhumerus -43.1878 2.66849 -65.7296
rradius 51.8848 -0 0
rwrist 13.436 0 0
rhand -22.9004 -19.1559 0.00884939
rfingers 0 -0 0
rthumb 3.53933 -49.1057 0.00857981
112
root 7.65756 16.8389 -26.5868 -3.36829 15.4213 -3.26551
lfemur -17.3086 -0.324837 -13.9565
ltibia 34.5453 -0 0
lfoot -14.394 -11.7731 -0.0172312
ltoes 32.9498 -0 0
rfemur -53.6488 -0.856089 -7.17058
rtibia 97.969 -0 0
rfoot 34.1158 13.5879 -0.00934001
rtoes 23.7016 -0 0
lowerback 7.72595 -0.788935 -0.172353
upperback 1.64104 -0.97846 2.4506
thorax -2.58203 -0.477838 2.74549
lowerneck -11.1786 -4.5323 1.67697
upperneck 0.323691 -6.25022 0.451701
head 1.96918 -3.09005 -0.455639
lclavicle 0 0 0
lhumerus -43.5347 -13.569 93.6036
lradius 47.5849 -0 0
lwrist 13.0596 0 0
lhand 7.694 6.95708 0.00189586
lfingers 0 -0 0
lthumb 32.936 33.9704 0.00168941
rclavicle 0 0 0
rhumerus -43.2611 2.95714 -65.0395
rradius 52.1636 -0 0
rwrist 15.349 0 0
rhand -23.0537 -19.8171 0.00530939
rfingers 0 -0 0
rthumb 3.39124 -49.7696 0.00514765
113
root 7.67872 16.8568 -26.5766 -4.20359 15.9419 -3.33187
lfemur -16.2594 0.044209 -14.1335
ltibia 34.0697 0 0
lfoot -13.9051 -12.4458 0
ltoes 34.2979 0 0
rfemur -55.7685 -0.386855 -8.62373
rtibia 99.428 0 0
rfoot 34.2414 12.1701 0
rtoes 24.5227 0 0
lowerback 8.48779 -1.10997 -0.163163
upperback 1.96257 -1.39995 2.5089
thorax -2.65714 -0.688219 2.83611
lowerneck -11.2702 -4.4822 1.59539
upperneck 0.458515 -6.17496 0.390532
head 2.03156 -3.05311 -0.463564
lclavicle 1.73937e-14 -3.18055e-15 0
lhumerus -43.0043 -14.0438 93.5185
lradius 47.3109 0 0
lwrist 12.7087 0 0
lhand 7.58807 6.61532 0
lfingers 7.12502 0 0
lthumb 32.8353 33.6501 0
rclavicle 1.73937e-14 -3.18055e-15 0
rhumerus -43.3309 3.24664 -64.3496
rradius 52.4425 0 0
rwrist 17.2621 0 0
rhand -23.207 -20.4783 0
rfingers 7.12502 0 0
rthumb 3.24321 -50.4334 0
